<?xml version="1.0" encoding="UTF-8" standalone="no"?>
<svg
   height="24px"
   viewBox="0 -960 960 960"
   width="24px"
   fill="#5f6368"
   version="1.1"
   id="svg1"
   sodipodi:docname="alarm.svg"
   inkscape:version="1.3.2 (091e20e, 2023-11-25, custom)"
   xmlns:inkscape="http://www.inkscape.org/namespaces/inkscape"
   xmlns:sodipodi="http://sodipodi.sourceforge.net/DTD/sodipodi-0.dtd"
   xmlns="http://www.w3.org/2000/svg"
   xmlns:svg="http://www.w3.org/2000/svg">
  <defs
     id="defs1" />
  <sodipodi:namedview
     id="namedview1"
     pagecolor="#ffffff"
     bordercolor="#000000"
     borderopacity="0.25"
     inkscape:showpageshadow="2"
     inkscape:pageopacity="0.0"
     inkscape:pagecheckerboard="0"
     inkscape:deskcolor="#d1d1d1"
     inkscape:zoom="53.708333"
     inkscape:cx="11.99069"
     inkscape:cy="12"
     inkscape:window-width="2560"
     inkscape:window-height="1566"
     inkscape:window-x="-11"
     inkscape:window-y="-11"
     inkscape:window-maximized="1"
     inkscape:current-layer="svg1" />
  <path
     d="m 471.06284,-48.719938 c -58.68891,0 -113.66084,-11.150892 -164.91583,-33.452676 -51.25498,-22.301786 -95.85855,-52.428756 -133.8107,-90.380916 -37.95216,-37.95215 -68.07913,-82.55572 -90.380919,-133.8107 -22.301784,-51.25499 -33.452676,-106.22692 -33.452676,-164.91583 0,-58.68891 11.150892,-113.66084 33.452676,-164.91583 22.301789,-51.25498 52.428759,-95.85855 90.380919,-133.8107 37.95215,-37.95216 82.55572,-68.07913 133.8107,-90.38092 51.25499,-22.30178 106.22692,-33.45267 164.91583,-33.45267 58.68891,0 113.66084,11.15089 164.91583,33.45267 51.25498,22.30179 95.85855,52.42876 133.8107,90.38092 37.95216,37.95215 68.07913,82.55572 90.38092,133.8107 22.30178,51.25499 33.45267,106.22692 33.45267,164.91583 0,58.68891 -11.15089,113.66084 -33.45267,164.91583 -22.30179,51.25498 -52.42876,95.85855 -90.38092,133.8107 -37.95215,37.95216 -82.55572,68.07913 -133.8107,90.380916 -51.25499,22.301784 -106.22692,33.452676 -164.91583,33.452676 z m 131.46315,-225.365402 65.73157,-65.73157 -150.2436,-150.2436 v -215.97517 h -93.90224 v 253.53607 z m -131.46315,131.46315 c 91.55469,0 169.21968,-31.88764 232.99496,-95.66291 63.77527,-63.77528 95.66291,-141.44027 95.66291,-232.99496 0,-91.55469 -31.88764,-169.21968 -95.66291,-232.99496 -63.77528,-63.77527 -141.44027,-95.66291 -232.99496,-95.66291 -91.55469,0 -169.21968,31.88764 -232.99496,95.66291 -63.77527,63.77528 -95.66291,141.44027 -95.66291,232.99496 0,91.55469 31.88764,169.21968 95.66291,232.99496 63.77528,63.77527 141.44027,95.66291 232.99496,95.66291 z"
     id="path1"
     sodipodi:nodetypes="ssssssssssssssssscccccccsssssssss"
     style="stroke-width:1.17378" />
</svg>
